<svg width="40" height="40" viewBox="0 0 40 40" fill="none" xmlns="http://www.w3.org/2000/svg" aria-labelledby="title desc" role="img">
  <title id="title">Serial Monitor</title>
  <desc id="desc">40x40 plugin icon — document with serial waveform for Serial Monitor plugin (updated)</desc>

  <defs>
    <linearGradient id="bgGrad" x1="0" y1="0" x2="40" y2="40" gradientUnits="userSpaceOnUse">
      <stop offset="0" stop-color="#28C76F" />
      <stop offset="0.6" stop-color="#34A7FF" />
      <stop offset="1" stop-color="#7A6CFF" />
    </linearGradient>
    <linearGradient id="foldGrad" x1="0" y1="0" x2="1" y2="1">
      <stop offset="0" stop-color="#FFFFFF" stop-opacity="0.98" />
      <stop offset="1" stop-color="#F0F2F7" />
    </linearGradient>

    <!-- subtle paper shadow -->
    <filter id="paperShadow" x="-20%" y="-20%" width="140%" height="140%">
      <feOffset dx="0" dy="1" result="off"/>
      <feGaussianBlur in="off" stdDeviation="1" result="blur"/>
      <feColorMatrix in="blur" type="matrix" values="0 0 0 0 0  0 0 0 0 0  0 0 0 0 0  0 0 0 0.12 0" result="shadow"/>
      <feBlend in="SourceGraphic" in2="shadow" mode="normal" />
    </filter>
  </defs>

  <!-- Background rounded square with subtle outline -->
  <rect x="0" y="0" width="40" height="40" rx="6" fill="url(#bgGrad)" stroke="rgba(0,0,0,0.06)" stroke-width="0.6" />

  <!-- Paper-like inner sheet with shadow -->
  <rect x="6" y="6" width="28" height="28" rx="4" fill="#FFFFFF" filter="url(#paperShadow)" />

  <!-- Larger folded corner (top-right) -->
  <path d="M30 6 H34 V12 L30 10 L30 6 Z" fill="url(#foldGrad)" stroke="#E6E9F2" stroke-width="0.6"/>

  <!-- 中间替换：使用波形表示串口数据流，并在右下角加入小插头 -->
  <!-- 居中波形（位置相对于画布） -->
  <path d="M10 22 C12 18,14 26,16 22 C18 18,20 26,22 22 C24 18,26 26,30 22" stroke="#4940E6" stroke-width="2.0" stroke-linecap="round" stroke-linejoin="round" fill="none" />

  <!-- 右下小插头（放在内页右下角附近） -->
  <g transform="translate(22,22)">
    <!-- 插头主体 -->
    <rect x="6" y="4" width="6" height="5" rx="1" fill="#4940E6" />
    <!-- 插针 -->
    <rect x="7" y="0.5" width="1" height="3" rx="0.2" fill="#4940E6" />
    <rect x="10" y="0.5" width="1" height="3" rx="0.2" fill="#4940E6" />
    <!-- 插头与线连接小段（简化） -->
    <rect x="-2" y="6" width="8" height="1.6" rx="0.8" fill="#C7D2E0" transform="translate(0,0)" />
  </g>

</svg>
